<svg xmlns="http://www.w3.org/2000/svg" xmlns:xlink="http://www.w3.org/1999/xlink" fill="none" version="1.1" width="360" height="67" viewBox="0 0 360 67"><defs><linearGradient x1="0.21177560091018677" y1="0.9778269529342651" x2="0.841887891292572" y2="0.07922149449586868" id="master_svg0_1_1137"><stop offset="0%" stop-color="#7253F6" stop-opacity="1"/><stop offset="30.714285373687744%" stop-color="#9E46F4" stop-opacity="1"/><stop offset="60.71428656578064%" stop-color="#BA50AC" stop-opacity="1"/><stop offset="100%" stop-color="#DE5C4F" stop-opacity="1"/></linearGradient></defs><g><g><path d="M89.92,36.92Q91.18,38.54,91.84,40.76Q92.44,42.98,92.02000000000001,46.04Q91.42,49.94,89.5,52.94Q87.58,55.94,84.76,57.92Q81.88,59.9,78.34,60.92Q74.74,61.94,70.84,61.94Q68.2,61.94,66.03999999999999,61.52Q63.82,61.1,62.14,60.5Q60.52,59.9,59.44,59.24Q58.42,58.58,58,58.1L58.84,56.12Q59.86,53.84,61.96,52.7Q64.06,51.56,66.4,52.28Q66.76,52.4,67,52.46Q69.1,53.12,71.98,53.12Q73.84,53.12,75.4,52.64Q76.96000000000001,52.22,78.16,51.38Q79.3,50.6,80.02,49.4Q80.74,48.2,80.98,46.7Q81.22,45.02,80.44,43.82Q79.66,42.56,78.28,41.6Q76.9,40.7,75.1,39.86Q73.3,39.02,71.38,38.06Q69.46000000000001,37.16,67.72,35.96Q65.98,34.82,64.66,33.14Q63.4,31.52,62.8,29.24Q62.14,27.02,62.62,23.9Q63.16,20.6,64.96,18.14Q66.76,15.44,69.28,13.64Q71.86,11.84,75.1,10.94Q78.4,10.04,81.88,10.04Q83.68,10.04,85.48,10.34Q87.22,10.58,88.72,11.06Q90.22,11.54,91.36,12.08Q91.78,12.32,92.22999999999999,12.56Q92.68,12.8,92.97999999999999,13.01Q93.28,13.22,93.28,13.22L91.84,16.34Q89.68,20.48,84.7,18.8Q84.7,18.8,84.64,18.8Q82.78,18.2,80.92,17.96Q79.12,17.96,77.68,18.44Q76.48,18.86,75.64,19.52Q74.68,20.24,74.08,21.26Q73.53999999999999,22.22,73.36,23.36Q73.12,25.04,73.9,26.24Q74.62,27.5,76.06,28.4Q77.5,29.36,79.3,30.2Q81.16,31.04,83.08,31.94Q85,32.9,86.8,34.1Q88.6,35.24,89.92,36.92ZM119.25999999999999,53.78Q119.8,53.72,120.75999999999999,53.42Q122.62,53,124.21,53.78Q125.8,54.56,126.58,56.3L127.6,58.58Q127.18,58.82,126.4,59.18Q126.34,59.18,126.28,59.18Q125.5,59.48,124.18,59.99Q122.86,60.5,121.84,60.74Q119.97999999999999,61.22,117.52000000000001,61.58Q115.12,61.94,112.47999999999999,61.94Q107.62,61.94,104.14,60.68Q100.66,59.48,98.56,57.02Q96.46000000000001,54.5,95.8,50.72Q95.14,46.94,95.86,41.84Q96.52000000000001,37.04,98.38,33.14Q100.18,29.24,102.94,26.54Q105.7,23.84,109.36,22.4Q113.02000000000001,21.02,117.34,21.02Q121.84,21.02,124.9,22.34Q127.96,23.66,129.7,26.06Q131.44,28.46,131.98000000000002,31.7Q132.45999999999998,34.94,131.92000000000002,38.78L131.74,40.4Q131.44,42.26,130.48000000000002,43.16Q129.51999999999998,44.06,128.07999999999998,44.06L106,44.06Q105.64,46.4,105.94,48.26Q106.24000000000001,50.18,107.2,51.5Q108.22,52.82,110.02000000000001,53.48Q111.82,54.2,114.46000000000001,54.2Q117.16,54.2,119.25999999999999,53.78ZM107.97999999999999,33.86Q107.25999999999999,35.54,106.9,37.46L122.2,37.46Q122.92,33.14,121.42,30.68Q119.92,28.22,116.02000000000001,28.22Q114.1,28.22,112.53999999999999,28.94Q110.97999999999999,29.72,109.9,30.92Q108.75999999999999,32.18,107.97999999999999,33.86ZM137.92000000000002,61.82L145.24,9.86Q145.6,7.94,146.98000000000002,6.74Q148.36,5.54,150.22,5.54L155.86,5.54L147.88,61.82L137.92000000000002,61.82ZM161.56,61.82L168.88,9.86Q169.24,7.94,170.62,6.74Q172,5.54,173.86,5.54L179.5,5.54L171.51999999999998,61.82L161.56,61.82ZM208.24,53.78Q208.78,53.72,209.74,53.42Q211.6,53,213.19,53.78Q214.78,54.56,215.56,56.3L216.58,58.58Q216.16,58.82,215.38,59.18Q215.32,59.18,215.26,59.18Q214.48,59.48,213.16,59.99Q211.84,60.5,210.82,60.74Q208.96,61.22,206.5,61.58Q204.1,61.94,201.46,61.94Q196.6,61.94,193.12,60.68Q189.64,59.48,187.54,57.02Q185.44,54.5,184.78,50.72Q184.12,46.94,184.84,41.84Q185.5,37.04,187.36,33.14Q189.16,29.24,191.92,26.54Q194.68,23.84,198.34,22.4Q202,21.02,206.32,21.02Q210.82,21.02,213.88,22.34Q216.94,23.66,218.68,26.06Q220.42,28.46,220.96,31.7Q221.44,34.94,220.9,38.78L220.72,40.4Q220.42,42.26,219.46,43.16Q218.5,44.06,217.06,44.06L194.98,44.06Q194.62,46.4,194.92,48.26Q195.22,50.18,196.18,51.5Q197.2,52.82,199,53.48Q200.8,54.2,203.44,54.2Q206.14,54.2,208.24,53.78ZM196.96,33.86Q196.24,35.54,195.88,37.46L211.18,37.46Q211.9,33.14,210.4,30.68Q208.9,28.22,205,28.22Q203.08,28.22,201.52,28.94Q199.96,29.72,198.88,30.92Q197.74,32.18,196.96,33.86ZM251.98,20.96Q251.98,20.96,252.04,20.96Q252.46,20.96,253.75,21.26Q255.04,21.56,257.14,22.58Q256.65999999999997,23.48,255.97,24.92Q255.28,26.36,254.56,27.86Q253.84,29.36,253.36,30.41Q252.88,31.46,252.88,31.46Q252.88,31.46,252.55,31.31Q252.22,31.16,251.77,31.01Q251.32,30.86,250.84,30.74Q250.18,30.56,249.04,30.59Q247.9,30.62,247.06,30.92Q246.16,31.28,245.14,32Q244.12,32.78,242.92,33.98Q241.72,35.24,240.34,37.04L237.82,54.98Q237.34,58.04,235.09,59.99Q232.84,61.94,229.84,61.94L226.54,61.94L231.46,26.72Q231.82,24.62,233.35,23.27Q234.88,21.92,236.98,21.92L240.94,21.92L240.1,27.8Q241.84,25.76,243.28,24.38Q244.78,23.06,246.04,22.28Q247.3,21.5,248.5,21.2Q249.7,20.9,250.84,20.9Q251.38,20.9,251.98,20.96ZM281.14,10.16Q288.4,10.16,292.21000000000004,12.35Q296.02,14.54,297.55,17.54Q299.08000000000004,20.54,299.26,23.12Q299.44,25.7,299.26,26.6Q298.96000000000004,28.82,298.39,30.41Q297.82,32,296.86,33.68Q294.94,37.22,291.94,39.62Q288.88,42.02,284.8,43.28Q280.72,44.54,275.38,44.54L270.94,44.54L269.62,54.5Q269.14,57.8,266.74,59.93Q264.34000000000003,62.06,261.1,62.06L257.8,62.06L263.98,16.4Q264.4,13.64,266.40999999999997,11.9Q268.41999999999996,10.16,271.12,10.16L281.14,10.16ZM287.74,27.38Q288.15999999999997,24.56,287.38,22.7Q286.65999999999997,20.84,285.34000000000003,20Q284.02,19.1,282.46000000000004,18.86Q280.9,18.62,279.15999999999997,18.62L274.53999999999996,18.62L272.14,36.08L277.24,36.02Q279.88,36.02,281.74,35.3Q283.6,34.58,284.91999999999996,33.32Q286.24,32.06,287.02,30.26Q287.32,29.6,287.47,29Q287.62,28.4,287.74,27.38ZM311.2,10.16L317.92,10.16L317.14,15.74Q316.9,16.94,316.06,17.69Q315.22,18.44,314.08,18.44L306.82,18.44L307.53999999999996,13.28Q307.72,11.9,308.77,11.03Q309.82,10.16,311.2,10.16ZM305.44,26.06Q305.74,24.38,306.97,23.3Q308.2,22.22,309.88,22.22L315.94,22.22L311.62,53.6Q311.08000000000004,57.38,308.32,59.75Q305.56,62.12,301.9,62.12L300.52,62.12L305.44,26.06ZM359.02,22.52Q353.26,21.02,348.22,21.02Q336.76,21.02,329.5,27.38Q322.3,33.74,322.3,43.7Q322.3,51.8,327.64,56.84Q332.98,61.88,341.68,61.88Q348.58,61.88,355.66,58.76L355.66,58.7Q355.9,55.88,353.92,54.26Q351.94,52.64,349.24,53.36Q345.64,54.5,342.4,54.5Q337.18,54.5,334.12,51.62Q331.06,48.74,331.06,43.88Q331.06,37.64,335.5,33.02Q339.94,28.4,348.04,28.4Q350.38,28.4,352.72,28.76Q354.88,29,356.53,27.83Q358.18,26.66,358.66,24.56L359.02,22.52Z" fill="#000000" fill-opacity="1"/></g><g><path d="M0.334664,53.6728C-2.06542,61.6224,9.16332,63.5719,11.1364,60.8274C17.1371,52.4804,18.2822,50.9938,23.8831,46.7083C28.684,43.0442,29.3111,43.152,35.1405,40.6627C41.9764,36.4574,39.2962,28.0796,30.3966,27.8601C23.8865,28.2643,32.1827,23.9426,38.7178,20.5384C41.4122,19.1348,43.8073,17.8872,44.7416,17.1911C47.9421,14.80672,45.142,4.5770800000000005,35.1405,6.167047Q25.1389,7.75701,17.3695,14.34634C17.3691,14.34633,8.01894,19.91,3.61859,27.8601Q1.89956,30.9659,2.67097,33.219Q3.87421,36.7333,11.1365,38.1732Q2.73475,45.7231,0.334664,53.6728Z" fill="url(#master_svg0_1_1137)" fill-opacity="1"/></g></g></svg>