<svg viewBox="0 0 522.42 141.65" xmlns="http://www.w3.org/2000/svg"><title>Asset 2</title><g data-name="Layer 2" id="Layer_2"><g data-name="레이어 1" id="레이어_1"><path d="M13.38,51.76C29.32,27.56,64.1,5.46,89.86,5.46c53.93,0,61,53.4,36.71,88.08-15.94,24-49.75,46.3-77.61,46.3C-3.85,139.84-10.93,86.45,13.38,51.76ZM114.49,99.67c23.35-36.94,17.23-88.4-32.2-88.4C57.17,11.27,39.62,24,26.26,46c-23,37.11-17.87,87.12,32,87.76C82.77,134.19,102.09,120.64,114.49,99.67Z"></path><path d="M232.81,141.65c2.63-12.2,5.1-31.08,5.16-41.28h1.65c.75,26.4,8,39.3,22.06,39.3,12.72,0,19.77-7.11,19.77-19.65,0-13.7-10.07-31.61-22.32-43.58-14.14-14-25.42-25.16-25.42-45.67,0-18.63,14.13-27,26.76-27,6.28,0,12.77,3.5,17.94,3.5,3,0,5.07-3.07,4.84-7.31H285a204.14,204.14,0,0,0,3.42,37.42l-1.54.51C282.69,25.32,276,5.78,260.62,5.78c-11.07,0-17,6.45-17,18.13,0,20.45,11.51,31.08,23.22,41.9s23.3,24.9,23.3,41.72c0,17.83-9.38,34.12-28.43,34.12-9.41,0-14.12-4.42-20.06-4.42a7.74,7.74,0,0,0-7.25,4.42Z"></path><path d="M297,72.65C297,24.47,332.36,3.8,364.6,3.8S432.09,26.16,432.09,73c0,48-35.41,68.69-67.49,68.69C332.35,141.65,297,119.44,297,72.65ZM422.06,83c0-38.19-26.92-75.55-63.09-75.55-31.35,0-51.84,21.89-51.84,55.14,0,38.79,26.91,75.4,62.94,75.4C401.8,138,422.06,116.47,422.06,83Z"></path><path d="M478.32,140.89H476L441.85,26.22c-3.82-12.86-7-16.08-14-19.6V5.31c4.9.17,10.06.63,14.13.63,6.72,0,14.26-.65,21.13-.78V6.7c-7.34,2.13-10.83,6-10.83,12.41a27.74,27.74,0,0,0,1.08,7.08l26.93,97.48L501.43,46.6a69,69,0,0,0,2.75-17.86c0-13.12-5.91-20.85-17.52-21.95V5.15c9,.33,13.25.64,18.86.64,2.41,0,13.12,0,16.9-.36V6.89c-7.52,2.31-9.07,6.8-12.82,18.55-2.13,6.68-5.78,21.48-5.78,21.48Z"></path><path d="M188.12,140.89h-2.29L151.65,26.22c-3.82-12.86-7-16.08-14-19.6V5.31c4.9.17,10.06.63,14.13.63,6.72,0,14.26-.65,21.13-.78V6.7c-7.34,2.13-10.83,6-10.83,12.41a27.74,27.74,0,0,0,1.08,7.08l26.93,97.48L211.23,46.6A69,69,0,0,0,214,28.74c0-13.12-5.91-20.85-17.52-21.95V5.15c9,.33,13.25.64,18.86.64,2.41,0,13.12,0,16.9-.36V6.89c-7.52,2.31-9.07,6.8-12.82,18.55-2.13,6.68-5.78,21.48-5.78,21.48Z"></path></g></g></svg>